<?xml version="1.0" encoding="UTF-8" standalone="no" ?>
<!DOCTYPE svg PUBLIC "-//W3C//DTD SVG 1.1//EN" "http://www.w3.org/Graphics/SVG/1.1/DTD/svg11.dtd">
<svg xmlns="http://www.w3.org/2000/svg" xmlns:xlink="http://www.w3.org/1999/xlink" version="1.1" width="1280" height="1024" viewBox="0 0 1280 1024" xml:space="preserve">
<desc>Created with Fabric.js 4.4.0</desc>
<defs>
</defs>
<g transform="matrix(1 0 0 1 640 512)" id="background-logo"  >
<rect style="stroke: none; stroke-width: 0; stroke-dasharray: none; stroke-linecap: butt; stroke-dashoffset: 0; stroke-linejoin: miter; stroke-miterlimit: 10; fill: rgb(255,255,255); fill-opacity: 0; fill-rule: nonzero; opacity: 1;"  paint-order="stroke"  x="-640" y="-512" rx="0" ry="0" width="1280" height="1024" />
</g>
<g transform="matrix(1.9211538461538462 0 0 1.9211538461538462 814.1912413011344 517.9652514493927)" id="text-logo-path"  >
<path style="stroke: rgb(255,255,255); stroke-width: 0; stroke-dasharray: none; stroke-linecap: butt; stroke-dashoffset: 0; stroke-linejoin: miter; stroke-miterlimit: 4; fill: rgb(204,152,255); fill-rule: nonzero; opacity: 1;"  paint-order="stroke"  transform=" translate(-168.315, 12.529999999999998)" d="M 9.54 0 L 3.45 0 L 3.45 -25.05 Q 3.45 -27.4 4.3 -29.04 Q 5.16 -30.68 6.43 -31.69 Q 7.71 -32.7 9.21 -33.15 Q 10.71 -33.61 11.98 -33.61 L 11.98 -33.61 L 25.76 -33.61 Q 27.82 -33.61 29.46 -33.08 Q 31.1 -32.55 32.36 -31.68 Q 33.61 -30.8 34.49 -29.65 Q 35.37 -28.5 35.94 -27.25 Q 36.52 -25.99 36.77 -24.71 Q 37.03 -23.44 37.03 -22.31 L 37.03 -22.31 L 37.03 -19.55 Q 37.03 -17.46 36.52 -15.82 Q 36 -14.18 35.12 -12.93 Q 34.24 -11.67 33.09 -10.78 Q 31.95 -9.89 30.69 -9.33 Q 29.44 -8.77 28.16 -8.51 Q 26.88 -8.25 25.76 -8.25 L 25.76 -8.25 L 11.98 -8.25 L 11.98 -14.34 L 25.76 -14.34 Q 26.93 -14.44 27.88 -14.82 Q 28.83 -15.21 29.51 -15.87 Q 30.19 -16.52 30.56 -17.45 Q 30.94 -18.38 30.94 -19.55 L 30.94 -19.55 L 30.94 -22.31 Q 30.82 -23.46 30.45 -24.42 Q 30.07 -25.38 29.43 -26.06 Q 28.78 -26.74 27.87 -27.13 Q 26.95 -27.52 25.76 -27.52 L 25.76 -27.52 L 12.02 -27.52 Q 10.8 -27.52 10.17 -26.88 Q 9.54 -26.25 9.54 -25.05 L 9.54 -25.05 L 9.54 0 Z M 43.72 -8.39 L 43.72 -8.39 Q 43.72 -9.66 44.17 -11.13 Q 44.61 -12.61 45.61 -13.86 Q 46.61 -15.12 48.21 -15.96 Q 49.82 -16.8 52.11 -16.8 L 52.11 -16.8 L 63.11 -16.8 L 63.11 -10.99 L 52.11 -10.99 Q 50.87 -10.99 50.19 -10.23 Q 49.51 -9.47 49.51 -8.34 L 49.51 -8.34 Q 49.51 -7.15 50.3 -6.48 Q 51.08 -5.81 52.16 -5.81 L 52.16 -5.81 L 63.11 -5.81 Q 64.35 -5.81 65.03 -6.56 Q 65.71 -7.31 65.71 -8.44 L 65.71 -8.44 L 65.71 -16.95 Q 65.71 -18.14 64.97 -18.84 Q 64.23 -19.55 63.11 -19.55 L 63.11 -19.55 L 49.72 -19.55 L 49.72 -25.34 L 63.11 -25.34 Q 64.37 -25.34 65.84 -24.89 Q 67.3 -24.45 68.56 -23.45 Q 69.81 -22.45 70.65 -20.85 Q 71.5 -19.24 71.5 -16.95 L 71.5 -16.95 L 71.5 -8.39 Q 71.5 -7.13 71.05 -5.66 Q 70.61 -4.2 69.61 -2.94 Q 68.61 -1.69 67.01 -0.84 Q 65.4 0 63.11 0 L 63.11 0 L 52.11 0 Q 50.85 0 49.38 -0.45 Q 47.92 -0.89 46.67 -1.89 Q 45.41 -2.88 44.57 -4.49 Q 43.72 -6.09 43.72 -8.39 Z M 80.75 -8.55 L 80.75 -8.55 L 80.75 -16.8 Q 80.75 -17.67 80.94 -18.63 Q 81.14 -19.59 81.57 -20.54 Q 81.99 -21.49 82.66 -22.36 Q 83.32 -23.23 84.27 -23.88 Q 85.22 -24.54 86.46 -24.94 Q 87.71 -25.34 89.28 -25.34 L 89.28 -25.34 L 105.8 -25.34 L 105.8 -19.24 L 89.28 -19.24 Q 88.08 -19.24 87.46 -18.63 Q 86.84 -18.02 86.84 -16.76 L 86.84 -16.76 L 86.84 -8.55 Q 86.84 -7.36 87.47 -6.73 Q 88.1 -6.09 89.32 -6.09 L 89.32 -6.09 L 105.8 -6.09 L 105.8 0 L 89.28 0 Q 88.01 0 86.51 -0.45 Q 85.01 -0.89 83.73 -1.91 Q 82.46 -2.93 81.6 -4.56 Q 80.75 -6.19 80.75 -8.55 Z M 121.59 0 L 115.49 0 L 115.49 -36.05 L 121.59 -36.05 L 121.59 0 Z M 135.04 -19.24 L 124.05 -19.24 L 124.05 -25.34 L 135.04 -25.34 Q 135.91 -25.34 136.87 -25.14 Q 137.83 -24.94 138.78 -24.52 Q 139.73 -24.09 140.59 -23.43 Q 141.46 -22.76 142.12 -21.81 Q 142.77 -20.86 143.17 -19.62 Q 143.57 -18.38 143.57 -16.8 L 143.57 -16.8 L 143.57 0 L 137.48 0 L 137.48 -16.8 Q 137.48 -18 136.87 -18.62 Q 136.26 -19.24 135.04 -19.24 L 135.04 -19.24 Z M 153.57 -8.55 L 153.57 -8.55 L 153.57 -25.34 L 159.66 -25.34 L 159.66 -8.55 Q 159.66 -7.36 160.29 -6.73 Q 160.93 -6.09 162.17 -6.09 L 162.17 -6.09 L 173.12 -6.09 L 173.12 0 L 162.12 0 Q 160.81 0 159.32 -0.45 Q 157.83 -0.89 156.54 -1.91 Q 155.26 -2.93 154.41 -4.56 Q 153.57 -6.19 153.57 -8.55 Z M 162.12 10.99 L 162.12 4.9 L 173.12 4.9 Q 174.33 4.9 174.94 4.27 Q 175.55 3.63 175.55 2.44 L 175.55 2.44 L 175.55 -25.34 L 181.65 -25.34 L 181.65 2.44 Q 181.65 4.01 181.25 5.26 Q 180.85 6.52 180.19 7.46 Q 179.54 8.41 178.67 9.08 Q 177.8 9.75 176.85 10.17 Q 175.9 10.59 174.94 10.79 Q 173.98 10.99 173.12 10.99 L 173.12 10.99 L 162.12 10.99 Z M 191.74 -8.55 L 191.74 -8.55 L 191.74 -16.8 Q 191.74 -19.15 192.59 -20.78 Q 193.45 -22.41 194.73 -23.43 Q 196 -24.45 197.5 -24.89 Q 199 -25.34 200.27 -25.34 L 200.27 -25.34 L 211.26 -25.34 L 211.26 -19.24 L 200.32 -19.24 Q 199.1 -19.24 198.46 -18.62 Q 197.83 -18 197.83 -16.8 L 197.83 -16.8 L 197.83 -8.6 Q 197.83 -7.36 198.45 -6.73 Q 199.07 -6.09 200.27 -6.09 L 200.27 -6.09 L 211.26 -6.09 Q 212.5 -6.09 213.11 -6.73 Q 213.72 -7.36 213.72 -8.55 L 213.72 -8.55 L 213.72 -36.05 L 219.82 -36.05 L 219.82 -8.55 Q 219.82 -6.98 219.42 -5.73 Q 219.02 -4.48 218.36 -3.53 Q 217.71 -2.58 216.84 -1.91 Q 215.97 -1.24 215.02 -0.82 Q 214.07 -0.4 213.1 -0.2 Q 212.13 0 211.26 0 L 211.26 0 L 200.27 0 Q 198.7 0 197.46 -0.4 Q 196.21 -0.8 195.26 -1.46 Q 194.32 -2.13 193.65 -3 Q 192.98 -3.87 192.56 -4.82 Q 192.14 -5.77 191.94 -6.74 Q 191.74 -7.71 191.74 -8.55 Z M 229.67 -8.39 L 229.67 -8.39 L 229.67 -16.95 Q 229.67 -18.21 230.12 -19.68 Q 230.56 -21.14 231.56 -22.39 Q 232.56 -23.65 234.16 -24.49 Q 235.77 -25.34 238.06 -25.34 L 238.06 -25.34 L 249.06 -25.34 Q 250.32 -25.34 251.79 -24.89 Q 253.25 -24.45 254.5 -23.45 Q 255.76 -22.45 256.6 -20.85 Q 257.45 -19.24 257.45 -16.95 L 257.45 -16.95 Q 257.45 -15.68 257 -14.21 Q 256.56 -12.75 255.56 -11.5 Q 254.56 -10.24 252.96 -9.4 Q 251.35 -8.55 249.06 -8.55 L 249.06 -8.55 L 238.06 -8.55 L 238.06 -14.34 L 249.06 -14.34 Q 250.3 -14.34 250.98 -15.11 Q 251.66 -15.87 251.66 -16.99 L 251.66 -16.99 Q 251.66 -18.19 250.9 -18.87 Q 250.13 -19.55 249.06 -19.55 L 249.06 -19.55 L 238.06 -19.55 Q 236.82 -19.55 236.14 -18.79 Q 235.46 -18.02 235.46 -16.9 L 235.46 -16.9 L 235.46 -8.39 Q 235.46 -7.17 236.22 -6.49 Q 236.99 -5.81 238.11 -5.81 L 238.11 -5.81 L 249.06 -5.81 L 249.06 0 L 238.06 0 Q 236.8 0 235.33 -0.45 Q 233.87 -0.89 232.61 -1.89 Q 231.36 -2.88 230.52 -4.49 Q 229.67 -6.09 229.67 -8.39 Z M 272.06 0 L 265.97 0 L 265.97 -16.8 Q 265.97 -18.38 266.37 -19.62 Q 266.76 -20.86 267.43 -21.81 Q 268.1 -22.76 268.97 -23.43 Q 269.83 -24.09 270.78 -24.52 Q 271.73 -24.94 272.71 -25.14 Q 273.68 -25.34 274.52 -25.34 L 274.52 -25.34 L 288.28 -25.34 L 288.28 -19.24 L 274.57 -19.24 Q 273.33 -19.24 272.69 -18.62 Q 272.06 -18 272.06 -16.8 L 272.06 -16.8 L 272.06 0 Z M 302.94 0 L 296.85 0 L 296.85 -22.31 Q 296.85 -22.95 297.08 -23.5 Q 297.32 -24.05 297.74 -24.46 Q 298.16 -24.87 298.72 -25.1 Q 299.28 -25.34 299.92 -25.34 L 299.92 -25.34 L 310.91 -25.34 Q 312.18 -25.34 313.63 -24.89 Q 315.08 -24.45 316.39 -23.46 L 316.39 -23.46 L 316.39 -25.34 L 324.64 -25.34 Q 325.51 -25.34 326.47 -25.14 Q 327.43 -24.94 328.38 -24.52 Q 329.33 -24.09 330.2 -23.43 Q 331.07 -22.76 331.72 -21.81 Q 332.38 -20.86 332.78 -19.62 Q 333.18 -18.38 333.18 -16.8 L 333.18 -16.8 L 333.18 0 L 327.08 0 L 327.08 -16.8 Q 327.08 -18 326.48 -18.62 Q 325.89 -19.24 324.64 -19.24 L 324.64 -19.24 L 319.16 -19.24 Q 319.46 -18.12 319.46 -16.8 L 319.46 -16.8 L 319.46 0 L 313.37 0 L 313.37 -16.8 Q 313.37 -18 312.74 -18.62 Q 312.11 -19.24 310.86 -19.24 L 310.86 -19.24 L 302.94 -19.24 L 302.94 0 Z" stroke-linecap="round" />
</g>
<g transform="matrix(0.8396205825907633 0 0 0.8396205825907632 278.3237240113568 513.0111336032389)" id="logo-logo"  >
<g style=""  paint-order="stroke"   >
		<g transform="matrix(0.13484069097888673 0 0 -0.13484069097888673 0 2.842171e-14)"  >
<path style="stroke: none; stroke-width: 1; stroke-dasharray: none; stroke-linecap: butt; stroke-dashoffset: 0; stroke-linejoin: miter; stroke-miterlimit: 10; fill: rgb(249,167,43); fill-rule: nonzero; opacity: 1;"  paint-order="stroke"  transform=" translate(-1265.4526691965204, -1309.4217953620428)" d="M 2034.97 634.891 C 2049.15 646.781 2139.39 723.5899999999999 2240.5 835.8789999999999 C 2240.8 836.2189999999999 2241.1 836.5199999999999 2241.43 836.8789999999999 C 2139.95 724.039 2049.2 646.82 2034.97 634.891 Z M 719.43 1590.51 C 721.156 1586.21 722.8829999999999 1581.82 724.6329999999999 1577.61 C 722.8829999999999 1581.82 721.1719999999999 1586.2099999999998 719.43 1590.51 z M 733.3549999999999 1557.21 C 733.9099999999999 1555.92 734.473 1554.56 735.0389999999999 1553.27 C 734.4729999999998 1554.56 733.9099999999999 1555.92 733.3549999999999 1557.21 z M 694.555 1657.16 C 697.7579999999999 1647.8100000000002 701.02 1638.64 704.3009999999999 1629.68 C 701.0079999999999 1638.64 697.7579999999999 1647.8100000000002 694.555 1657.16 z M 706.813 1623.0500000000002 C 709.316 1616.3200000000002 711.824 1609.6000000000001 714.3629999999999 1603.0800000000002 C 711.824 1609.6000000000001 709.3159999999999 1616.3200000000002 706.813 1623.0500000000002 z M 545.82 1530.11 C 545.82 1550.25 562.0630000000001 1566.53 582.168 1566.53 C 602.297 1566.53 618.648 1550.25 618.648 1530.11 C 618.648 1510 602.297 1493.6899999999998 582.168 1493.6899999999998 C 562.063 1493.6899999999998 545.82 1509.9999999999998 545.82 1530.11 z M 999.988 1305.31 C 995.9920000000001 1303.69 992.0550000000001 1301.8899999999999 988.023 1300.35 C 992.0550000000001 1301.8899999999999 995.9920000000001 1303.6899999999998 999.988 1305.31 z M 1034.67 1320.6299999999999 C 1030.0700000000002 1318.4299999999998 1025.54 1316.07 1020.8800000000001 1313.9699999999998 C 1025.5400000000002 1316.0699999999997 1030.0700000000002 1318.4299999999998 1034.67 1320.6299999999999 z M 1067.49 1337.4899999999998 C 1062.64 1334.8199999999997 1057.8700000000001 1332.0199999999998 1052.95 1329.4799999999998 C 1057.8700000000001 1332.0199999999998 1062.64 1334.8199999999997 1067.49 1337.4899999999998 z M 1099.16 1355.9499999999998 C 1094.17 1352.86 1089.23 1349.6699999999998 1084.17 1346.6999999999998 C 1089.23 1349.6699999999998 1094.17 1352.86 1099.16 1355.9499999999998 z M 1129.8500000000001 1375.9299999999998 C 1124.7600000000002 1372.4299999999998 1119.72 1368.85 1114.5500000000002 1365.4799999999998 C 1119.7200000000003 1368.8499999999997 1124.7600000000002 1372.4299999999998 1129.8500000000001 1375.9299999999998 z M 1159.7500000000002 1397.3799999999999 C 1154.5200000000002 1393.4499999999998 1149.3500000000001 1389.4499999999998 1144.0300000000002 1385.6399999999999 C 1149.3500000000001 1389.4499999999998 1154.5200000000002 1393.4499999999998 1159.7500000000002 1397.3799999999999 z M 1188.8200000000002 1420.1399999999999 C 1183.43 1415.7399999999998 1178.1000000000001 1411.3 1172.6200000000001 1407.02 C 1178.1000000000001 1411.3 1183.43 1415.74 1188.8200000000002 1420.1399999999999 z M 1217.0200000000002 1444.04 C 1211.4600000000003 1439.1499999999999 1205.9400000000003 1434.23 1200.2700000000002 1429.44 C 1205.9400000000003 1434.23 1211.4600000000003 1439.15 1217.0200000000002 1444.04 z M 1244.2600000000002 1468.8799999999999 C 1238.5400000000002 1463.4699999999998 1232.8300000000002 1458.06 1226.9700000000003 1452.76 C 1232.8300000000002 1458.06 1238.5400000000002 1463.47 1244.2600000000002 1468.8799999999999 z M 1270.63 1494.57 C 1264.72 1488.61 1258.8000000000002 1482.6599999999999 1252.71 1476.79 C 1258.8 1482.6599999999999 1264.72 1488.61 1270.63 1494.57 z M 1295.96 1520.82 C 1289.8600000000001 1514.31 1283.74 1507.81 1277.45 1501.36 C 1283.74 1507.81 1289.8600000000001 1514.31 1295.96 1520.82 z M 1320.23 1547.45 C 1313.98 1540.4 1307.68 1533.3500000000001 1301.19 1526.3400000000001 C 1307.68 1533.3500000000001 1313.98 1540.4 1320.23 1547.45 z M 1343.47 1574.3300000000002 C 1337.07 1566.7300000000002 1330.58 1559.13 1323.91 1551.5400000000002 C 1330.5800000000002 1559.13 1337.0700000000002 1566.7300000000002 1343.47 1574.3300000000002 z M 1365.23 1600.8200000000002 C 1358.83 1592.8300000000002 1352.29 1584.8200000000002 1345.58 1576.8000000000002 C 1352.29 1584.8200000000002 1358.85 1592.8300000000002 1365.23 1600.8200000000002 z M 1254.99 1946.8500000000001 C 1250.35 1947.5400000000002 1245.68 1948.2600000000002 1241.07 1948.9 C 1245.6799999999998 1948.2800000000002 1250.35 1947.5400000000002 1254.99 1946.8500000000001 z M 1293.63 1940.5300000000002 C 1288.7800000000002 1941.4100000000003 1283.93 1942.2900000000002 1279.0800000000002 1943.1000000000001 C 1283.93 1942.2900000000002 1288.7800000000002 1941.41 1293.63 1940.5300000000002 z M 1332.0600000000002 1932.9800000000002 C 1327.0100000000002 1934.0600000000002 1321.9900000000002 1935.0500000000002 1316.9800000000002 1936.0600000000002 C 1321.9900000000002 1935.0500000000002 1327.0100000000002 1934.0600000000002 1332.0600000000002 1932.9800000000002 z M 1370.0500000000002 1924.2100000000003 C 1366.4900000000002 1925.0900000000004 1362.9600000000003 1925.8600000000004 1359.4 1926.7100000000003 C 1362.96 1925.8600000000004 1366.49 1925.1000000000004 1370.0500000000002 1924.2100000000003 z M 1420.0500000000002 1910.3700000000003 C 1415.7500000000002 1911.6600000000003 1411.4500000000003 1913.0000000000005 1407.16 1914.2300000000002 C 1411.45 1913.0000000000002 1415.75 1911.6600000000003 1420.0500000000002 1910.3700000000003 z M 1460.5800000000002 1897.4500000000003 C 1455.8400000000001 1899.0700000000002 1451.0800000000002 1900.6600000000003 1446.3400000000001 1902.2000000000003 C 1451.0800000000002 1900.6600000000003 1455.8200000000002 1899.0700000000002 1460.5800000000002 1897.4500000000003 z M 1499.9700000000003 1883.2900000000002 C 1495.7400000000002 1884.9 1491.5300000000002 1886.4200000000003 1487.3000000000002 1887.9600000000003 C 1491.5300000000002 1886.4100000000003 1495.7400000000002 1884.9000000000003 1499.9700000000003 1883.2900000000002 z M 1537.6800000000003 1864.7100000000003 C 1537.7600000000002 1864.8800000000003 1537.8700000000003 1865.0900000000004 1537.9500000000003 1865.2500000000002 C 1537.8500000000004 1865.0700000000002 1537.7800000000002 1864.9100000000003 1537.6800000000003 1864.7100000000003 z M 1538.7400000000002 1866.8300000000002 C 1538.8800000000003 1867.1200000000001 1539.1100000000001 1867.5700000000002 1539.1100000000001 1867.5700000000002 C 1539.1100000000001 1867.5700000000002 1538.98 1867.3000000000002 1538.7400000000002 1866.8300000000002 z M 1428.8100000000002 1685.8200000000002 C 1427.7400000000002 1684.2800000000002 1426.6900000000003 1682.7700000000002 1425.6000000000001 1681.2100000000003 C 1426.69 1682.7700000000002 1427.7400000000002 1684.2800000000002 1428.8100000000002 1685.8200000000002 z M 1444.66 1708.91 C 1444.19 1708.22 1443.73 1707.5400000000002 1443.26 1706.8500000000001 C 1443.73 1707.5400000000002 1444.19 1708.22 1444.66 1708.91 z M 1407.24 1655.5900000000001 C 1408.65 1657.5200000000002 1410 1659.41 1411.39 1661.3400000000001 C 1410 1659.41 1408.65 1657.5200000000002 1407.24 1655.5900000000001 z M 1388.14 1630.0000000000002 C 1392.49 1610.9000000000003 1396.3400000000001 1591.7300000000002 1399.99 1572.5300000000002 C 1396.31 1591.7200000000003 1392.49 1610.9100000000003 1388.14 1630.0000000000002 C 1381.0700000000002 1620.7500000000002 1373.73 1611.4000000000003 1366.22 1602.0200000000002 C 1372.92 1610.39 1379.45 1618.7200000000003 1385.8 1626.9900000000002 C 1386.57 1627.9800000000002 1387.3899999999999 1629.0000000000002 1388.1399999999999 1630.0000000000002 z M 2111.98 1450.9800000000002 C 2146.86 1511.4500000000003 2182.22 1568.6400000000003 2216.93 1621.8400000000001 C 2182.22 1568.64 2146.8599999999997 1511.45 2111.98 1450.98 z M 1916.96 1191.3400000000001 C 1916.6000000000001 1200.93 1916.23 1210.5000000000002 1916.04 1220.0900000000001 C 1916.23 1210.5000000000002 1916.6 1200.93 1916.96 1191.3400000000001 z M 1919.77 1138.45 C 1919.01 1149.3300000000002 1918.26 1160.21 1917.72 1171.1100000000001 C 1918.26 1160.21 1919.01 1149.3300000000002 1919.77 1138.45 z M 1925.37 1073.27 L 1925.37 1073.27 C 1923.61 1089.52 1922.12 1105.79 1920.85 1122.08 C 1922.12 1105.79 1923.61 1089.52 1925.37 1073.27 z M 1915.76 1268.96 C 1915.69 1260.1100000000001 1915.76 1251.24 1915.82 1242.38 C 1915.76 1251.24 1915.6899999999998 1260.1100000000001 1915.76 1268.96 z M 1916.9 1317.65 C 1916.5900000000001 1309.3700000000001 1916.39 1301.0800000000002 1916.21 1292.7900000000002 C 1916.39 1301.0800000000002 1916.5900000000001 1309.3700000000001 1916.9 1317.65 z M 1919.43 1366.16 C 1918.92 1358.39 1918.48 1350.6000000000001 1918.0800000000002 1342.8200000000002 C 1918.4900000000002 1350.6000000000001 1918.92 1358.39 1919.43 1366.16 z M 1923.3300000000002 1414.3400000000001 C 1922.64 1407.0900000000001 1921.9900000000002 1399.8300000000002 1921.41 1392.5800000000002 C 1921.99 1399.8400000000001 1922.64 1407.0900000000001 1923.3300000000002 1414.3400000000001 z M 1949.15 1589.1000000000001 C 1949.8300000000002 1592.4900000000002 1950.6000000000001 1595.8600000000001 1951.3000000000002 1599.2500000000002 C 1950.6000000000001 1595.8600000000001 1949.8300000000002 1592.4900000000002 1949.15 1589.1000000000001 z M 1940.0600000000002 1540.3600000000001 C 1940.92 1545.3400000000001 1941.8600000000001 1550.3100000000002 1942.7600000000002 1555.2800000000002 C 1941.8700000000001 1550.3100000000002 1940.9200000000003 1545.3400000000001 1940.0600000000002 1540.3600000000001 z M 1932.4 1491.3400000000001 C 1933.24 1497.3100000000002 1934.17 1503.2700000000002 1935.0800000000002 1509.2300000000002 C 1934.17 1503.2700000000002 1933.2400000000002 1497.3100000000002 1932.4 1491.3400000000001 z M 1926.18 1442.0800000000002 C 1926.93 1448.7700000000002 1927.74 1455.44 1928.5600000000002 1462.1200000000001 C 1927.7400000000002 1455.44 1926.92 1448.7700000000002 1926.18 1442.0800000000002 z M 2393.7400000000002 1870.7500000000002 C 2392.9900000000002 1872.6900000000003 2392.2900000000004 1874.6600000000003 2391.51 1876.6000000000001 C 2391.2000000000003 1876.6000000000001 2390.82 1876.6000000000001 2390.51 1876.6000000000001 C 2290.6200000000003 1916.0600000000002 2188.32 1946.89 2084.69 1969.2700000000002 C 1793.41 2032.1100000000001 1491.31 2027.5100000000002 1201.65 1955.4400000000003 C 1200 1955.0300000000002 1198.3300000000002 1954.6900000000003 1196.68 1954.2700000000002 C 1137.6200000000001 1960.1500000000003 1080.98 1961.5200000000002 1027.93 1959.88 C 797.672 1952.73 635.211 1888.66 635.211 1888.66 C 635.371 1887.71 635.527 1886.8500000000001 635.6990000000001 1885.95 C 635.758 1885.6100000000001 635.836 1885.3 635.8950000000001 1884.97 C 651.4410000000001 1799.23 671.8090000000001 1723.57 694.4770000000001 1657.39 C 671.8090000000001 1723.5700000000002 651.4300000000001 1799.23 635.8950000000001 1884.96 L 635.8950000000001 1884.97 L 635.8830000000002 1884.97 C 635.8240000000002 1885.3 635.7580000000002 1885.6200000000001 635.6990000000002 1885.95 C 635.5270000000002 1885.73 635.1880000000002 1885.48 634.9610000000001 1885.25 C 632.4180000000001 1882.64 626.7190000000002 1879.41 624.4300000000002 1876.85 C 476.113 1711.93 384.156 1520.18 358.109 1319.27 L 456.715 1320.72 L 558.266 1322.19 L 358.1089999999999 1319.27 L 20.77729999999991 1314.33 L 351.2619999999999 1238.1599999999999 L 582.1879999999999 1184.9399999999998 L 455.9449999999999 1214.0199999999998 L 351.2619999999999 1238.1599999999999 C 344.1759999999999 1063.2099999999998 386.9139999999999 883.3279999999999 485.7069999999999 709.6799999999998 C 529.9839999999999 726.7299999999998 543.3439999999998 731.8709999999999 587.637 748.9409999999998 C 533.871 910.5199999999998 559.449 1078.83 622.434 1217.8399999999997 C 647.77 1273.7999999999997 679.16 1324.9699999999998 713.938 1369.0499999999997 C 737.355 1398.7599999999998 762.27 1425.2699999999998 787.906 1447.7999999999997 C 797.781 1430.4499999999998 807.473 1414.5599999999997 816.8399999999999 1400.0199999999998 C 820.137 1394.8799999999997 823.43 1389.9099999999999 826.6639999999999 1385.1099999999997 C 830.1909999999999 1379.8799999999997 833.6169999999998 1374.9799999999996 837.0269999999998 1370.1399999999996 C 837.8199999999998 1369.0099999999995 838.6839999999999 1367.7499999999995 839.4689999999998 1366.6299999999997 C 836.9139999999999 1328.0199999999998 835.8199999999998 1289.3499999999997 835.9219999999998 1250.6999999999996 L 835.9219999999998 1250.6999999999996 L 835.9059999999998 1250.6999999999996 C 835.9219999999998 1249.5299999999995 835.9569999999999 1248.3799999999997 835.9569999999999 1247.1999999999996 C 837.1949999999999 1039.5499999999995 876.5079999999999 832.0589999999995 954.3089999999999 635.5199999999996 C 1023.3399999999999 610.8009999999996 1195.7199999999998 588.7889999999996 1311.56 635.5199999999996 C 1311.56 635.5199999999996 1213.49 716.4489999999996 1102.97 839.3279999999996 C 1103.29 838.9799999999997 1103.58 838.6409999999996 1103.89 838.3279999999996 C 1214.0400000000002 716.0119999999996 1311.5600000000002 635.5199999999996 1311.5600000000002 635.5199999999996 C 1367.63 777.0309999999996 1403.7100000000003 924.2699999999996 1420.0700000000002 1073.1099999999997 C 1420.19 1073.0799999999997 1420.3000000000002 1073.0599999999997 1420.42 1073.0499999999997 C 1587.56 1051.2699999999998 1756.88 1051.2399999999998 1924.0300000000002 1072.8899999999996 C 1940.2600000000002 923.2699999999996 1976.4700000000003 775.2889999999996 2032.8100000000002 633.0899999999997 C 2148.6600000000003 586.3279999999997 2321.04 608.3279999999997 2390.08 633.0899999999997 C 2467.87 829.6289999999997 2507.2 1037.1099999999997 2508.44 1244.7699999999995 C 2508.44 1245.9099999999996 2508.46 1247.0899999999995 2508.4900000000002 1248.2399999999996 C 2509.0000000000005 1248.5299999999995 2509.59 1248.7599999999995 2510.1200000000003 1249.0399999999995 C 2510.7700000000004 1459.9399999999996 2472.0000000000005 1670.9199999999996 2393.7400000000002 1870.7499999999995" stroke-linecap="round" />
</g>
		<g transform="matrix(0.13484069097888673 0 0 -0.13484069097888673 107.9632783109405 -28.545804222648712)"  >
<path style="stroke: none; stroke-width: 1; stroke-dasharray: none; stroke-linecap: butt; stroke-dashoffset: 0; stroke-linejoin: miter; stroke-miterlimit: 10; fill: rgb(56,113,193); fill-rule: nonzero; opacity: 1;"  paint-order="stroke"  transform=" translate(-2066.2691287641646, -1521.1599999999999)" d="M 2084.69 1969.27 C 2066.54 1938.3 2050.7200000000003 1907.12 2036.91 1876.6 C 2036.0400000000002 1876.6 2035.14 1876.6 2034.22 1876.6 C 1932.44 1619.4399999999998 1896.16 1343.54 1925.39 1073.05 C 1925.5800000000002 1073.07 1925.76 1073.11 1925.97 1073.1299999999999 C 2009.82 1279.87 2116.09 1467.34 2216.93 1621.84 C 2114.93 1812.27 2084.6899999999996 1969.27 2084.6899999999996 1969.27" stroke-linecap="round" />
</g>
		<g transform="matrix(0.13484069097888673 0 0 -0.13484069097888673 131.27923992322457 -65.53876391554698)"  >
<path style="stroke: none; stroke-width: 1; stroke-dasharray: none; stroke-linecap: butt; stroke-dashoffset: 0; stroke-linejoin: miter; stroke-miterlimit: 10; fill: rgb(81,173,229); fill-rule: nonzero; opacity: 1;"  paint-order="stroke"  transform=" translate(-2239.2149999999997, -1795.5549999999998)" d="M 2393.74 1870.75 C 2392.99 1872.69 2392.29 1874.66 2391.5099999999998 1876.6 C 2391.2 1876.6 2390.8199999999997 1876.6 2390.5099999999998 1876.6 C 2290.62 1916.06 2188.3199999999997 1946.8899999999999 2084.6899999999996 1969.27 C 2084.6899999999996 1969.27 2114.9299999999994 1812.27 2216.9299999999994 1621.84 C 2280.3299999999995 1719 2341.5999999999995 1803.23 2393.7399999999993 1870.75" stroke-linecap="round" />
</g>
		<g transform="matrix(0.13484069097888673 0 0 -0.13484069097888673 148.0388099808061 -33.76796161228407)"  >
<path style="stroke: none; stroke-width: 1; stroke-dasharray: none; stroke-linecap: butt; stroke-dashoffset: 0; stroke-linejoin: miter; stroke-miterlimit: 10; fill: rgb(56,113,193); fill-rule: nonzero; opacity: 1;"  paint-order="stroke"  transform=" translate(-2363.5290191965196, -1559.895)" d="M 2216.93 1621.84 C 2281.9199999999996 1500.52 2375.95 1365.6399999999999 2510.12 1249.04 C 2510.77 1459.94 2472 1670.92 2393.74 1870.75 C 2341.6 1803.23 2280.33 1719 2216.93 1621.84" stroke-linecap="round" />
</g>
		<g transform="matrix(0.13484069097888673 0 0 -0.13484069097888673 127.53533973128594 79.29251439539348)"  >
<path style="stroke: none; stroke-width: 1; stroke-dasharray: none; stroke-linecap: butt; stroke-dashoffset: 0; stroke-linejoin: miter; stroke-miterlimit: 10; fill: rgb(117,209,212); fill-rule: nonzero; opacity: 1;"  paint-order="stroke"  transform=" translate(-2211.4449999999997, -721.2701518845374)" d="M 2032.81 633.09 C 2148.66 586.328 2321.04 608.328 2390.08 633.09 C 2342.46 714.1800000000001 2291.5 781.34 2241.43 836.879 C 2130.9 713.98 2032.81 633.09 2032.81 633.09" stroke-linecap="round" />
</g>
		<g transform="matrix(0.13484069097888673 0 0 -0.13484069097888673 149.57655278310938 49.948445297504804)"  >
<path style="stroke: none; stroke-width: 1; stroke-dasharray: none; stroke-linecap: butt; stroke-dashoffset: 0; stroke-linejoin: miter; stroke-miterlimit: 10; fill: rgb(62,175,174); fill-rule: nonzero; opacity: 1;"  paint-order="stroke"  transform=" translate(-2374.935, -938.9300000000001)" d="M 2390.08 633.09 C 2467.87 829.629 2507.2 1037.1100000000001 2508.44 1244.77 C 2451.41 1093.47 2341.37 948 2241.43 836.879 C 2291.5 781.34 2342.46 714.18 2390.08 633.09" stroke-linecap="round" />
</g>
		<g transform="matrix(0.13484069097888673 0 0 -0.13484069097888673 110.11843378118999 61.52238771593096)"  >
<path style="stroke: none; stroke-width: 1; stroke-dasharray: none; stroke-linecap: butt; stroke-dashoffset: 0; stroke-linejoin: miter; stroke-miterlimit: 10; fill: rgb(62,175,174); fill-rule: nonzero; opacity: 1;"  paint-order="stroke"  transform=" translate(-2082.255, -853.0799999999999)" d="M 2240.5 835.879 C 2161.74 923.371 2054.35 1018.0600000000001 1924.01 1073.07 C 1940.23 923.391 1976.46 775.3519999999999 2032.81 633.0899999999999 C 2032.81 633.0899999999999 2130.35 713.5509999999999 2240.5 835.8789999999999" stroke-linecap="round" />
</g>
		<g transform="matrix(0.13484069097888673 0 0 -0.13484069097888673 151.59537044145873 14.698633397312875)"  >
<path style="stroke: none; stroke-width: 1; stroke-dasharray: none; stroke-linecap: butt; stroke-dashoffset: 0; stroke-linejoin: miter; stroke-miterlimit: 10; fill: rgb(117,209,212); fill-rule: nonzero; opacity: 1;"  paint-order="stroke"  transform=" translate(-2389.91, -1200.395)" d="M 2390.08 1195.25 C 2390.08 1194.74 2390.08 1194.25 2390.08 1193.74 C 2354.17 1179.53 2317.96 1166.51 2281.47 1154.54 C 2278.1099999999997 1153.43 2274.7099999999996 1152.42 2271.31 1151.32 C 2271.32 1151.1299999999999 2271.32 1150.9299999999998 2271.32 1150.72 C 2311.73 1163.74 2351.8300000000004 1178.01 2391.51 1193.73 C 2391.51 1194.18 2391.51 1194.64 2391.51 1195.09 C 2431.07 1210.9299999999998 2470.7400000000002 1228.6399999999999 2508.4900000000002 1248.24 C 2508.5000000000005 1248.86 2508.51 1249.47 2508.51 1250.07 C 2480.4 1235.1499999999999 2441.4 1216.28 2390.0800000000004 1195.25" stroke-linecap="round" />
</g>
		<g transform="matrix(0.13484069097888673 0 0 -0.13484069097888673 128.4305182341651 -5.147001919385815)"  >
<path style="stroke: none; stroke-width: 1; stroke-dasharray: none; stroke-linecap: butt; stroke-dashoffset: 0; stroke-linejoin: miter; stroke-miterlimit: 10; fill: rgb(81,173,229); fill-rule: nonzero; opacity: 1;"  paint-order="stroke"  transform=" translate(-2218.085, -1347.6)" d="M 2510.12 1249.04 C 2375.95 1365.6399999999999 2281.92 1500.52 2216.93 1621.84 C 2116.14 1467.3899999999999 2009.8899999999999 1280.02 1926.0499999999997 1073.36 C 2042.6999999999998 1088.7199999999998 2158.2299999999996 1114.8 2271.3099999999995 1151.32 C 2274.7099999999996 1152.4199999999998 2278.1099999999997 1153.4299999999998 2281.4699999999993 1154.54 C 2317.959999999999 1166.51 2354.169999999999 1179.53 2390.0799999999995 1193.74 C 2390.0799999999995 1194.25 2390.0799999999995 1194.74 2390.0799999999995 1195.25 C 2441.3999999999996 1216.28 2480.3999999999996 1235.15 2508.5099999999993 1250.07 C 2508.5099999999993 1249.47 2508.499999999999 1248.86 2508.4899999999993 1248.24 C 2508.9999999999995 1248.53 2509.5899999999992 1248.76 2510.1199999999994 1249.04" stroke-linecap="round" />
</g>
		<g transform="matrix(0.13484069097888673 0 0 -0.13484069097888673 128.18319385796548 36.04488291746648)"  >
<path style="stroke: none; stroke-width: 1; stroke-dasharray: none; stroke-linecap: butt; stroke-dashoffset: 0; stroke-linejoin: miter; stroke-miterlimit: 10; fill: rgb(117,209,212); fill-rule: nonzero; opacity: 1;"  paint-order="stroke"  transform=" translate(-2216.25, -1042.0595000000003)" d="M 2391.51 1195.09 C 2391.51 1194.6399999999999 2391.51 1194.1799999999998 2391.51 1193.73 C 2351.8300000000004 1178.01 2311.73 1163.74 2271.32 1150.72 C 2158.2200000000003 1114.31 2042.6200000000001 1088.39 1925.9700000000003 1073.13 C 1926.0000000000002 1073.22 1926.0200000000002 1073.2800000000002 1926.0500000000002 1073.3600000000001 C 1925.3700000000001 1073.2800000000002 1924.7000000000003 1073.16 1924.0100000000002 1073.0700000000002 C 2054.3500000000004 1018.0600000000002 2161.7400000000002 923.3710000000001 2240.5 835.8790000000001 C 2240.8 836.2190000000002 2241.1 836.5200000000001 2241.43 836.8790000000001 C 2341.37 948.0000000000001 2451.41 1093.4700000000003 2508.4399999999996 1244.7700000000002 C 2508.4399999999996 1245.9100000000003 2508.4599999999996 1247.0900000000001 2508.49 1248.2400000000002 C 2470.74 1228.6400000000003 2431.0699999999997 1210.9300000000003 2391.5099999999998 1195.0900000000001" stroke-linecap="round" />
</g>
		<g transform="matrix(0.13484069097888673 0 0 -0.13484069097888673 112.32808445297508 26.585374280230354)"  >
<path style="stroke: none; stroke-width: 1; stroke-dasharray: none; stroke-linecap: butt; stroke-dashoffset: 0; stroke-linejoin: miter; stroke-miterlimit: 10; fill: rgb(117,209,212); fill-rule: nonzero; opacity: 1;"  paint-order="stroke"  transform=" translate(-2098.645, -1112.225)" d="M 1926.05 1073.36 C 1926.02 1073.28 1926 1073.2199999999998 1925.97 1073.1299999999999 C 2042.6200000000001 1088.3899999999999 2158.2200000000003 1114.31 2271.32 1150.7199999999998 C 2271.32 1150.9299999999998 2271.32 1151.1299999999999 2271.31 1151.3199999999997 C 2158.23 1114.7999999999997 2042.6999999999998 1088.7199999999998 1926.05 1073.3599999999997" stroke-linecap="round" />
</g>
		<g transform="matrix(0.13484069097888673 0 0 -0.13484069097888673 -17.865642994241796 78.96185028790791)"  >
<path style="stroke: none; stroke-width: 1; stroke-dasharray: none; stroke-linecap: butt; stroke-dashoffset: 0; stroke-linejoin: miter; stroke-miterlimit: 10; fill: rgb(249,167,43); fill-rule: nonzero; opacity: 1;"  paint-order="stroke"  transform=" translate(-1132.9344999999998, -723.7229200506389)" d="M 1311.56 635.52 C 1195.72 588.789 1023.3399999999999 610.8009999999999 954.309 635.52 C 1001.91 716.6089999999999 1052.8899999999999 783.781 1102.97 839.328 C 1213.49 716.449 1311.56 635.52 1311.56 635.52" stroke-linecap="round" />
</g>
		<g transform="matrix(0.13484069097888673 0 0 -0.13484069097888673 -39.90426103646831 49.62077543186183)"  >
<path style="stroke: none; stroke-width: 1; stroke-dasharray: none; stroke-linecap: butt; stroke-dashoffset: 0; stroke-linejoin: miter; stroke-miterlimit: 10; fill: rgb(246,135,18); fill-rule: nonzero; opacity: 1;"  paint-order="stroke"  transform=" translate(-969.4635000000001, -941.36)" d="M 954.309 635.52 C 876.508 832.059 837.195 1039.55 835.957 1247.2 C 892.988 1095.91 1003.02 950.461 1102.97 839.328 C 1052.89 783.781 1001.91 716.609 954.309 635.52" stroke-linecap="round" />
</g>
		<g transform="matrix(0.13484069097888673 0 0 -0.13484069097888673 -0.447938579654533 61.19411900191943)"  >
<path style="stroke: none; stroke-width: 1; stroke-dasharray: none; stroke-linecap: butt; stroke-dashoffset: 0; stroke-linejoin: miter; stroke-miterlimit: 10; fill: rgb(246,135,18); fill-rule: nonzero; opacity: 1;"  paint-order="stroke"  transform=" translate(-1262.13, -855.515)" d="M 1103.89 838.328 C 1182.66 925.8199999999999 1290.0400000000002 1020.52 1420.3700000000001 1075.51 C 1404.15 925.852 1367.94 777.789 1311.5600000000002 635.52 C 1311.5600000000002 635.52 1214.0400000000002 716.012 1103.89 838.328" stroke-linecap="round" />
</g>
		<g transform="matrix(0.13484069097888673 0 0 -0.13484069097888673 -18.512299424184278 35.71391938579657)"  >
<path style="stroke: none; stroke-width: 1; stroke-dasharray: none; stroke-linecap: butt; stroke-dashoffset: 0; stroke-linejoin: miter; stroke-miterlimit: 10; fill: rgb(249,167,43); fill-rule: nonzero; opacity: 1;"  paint-order="stroke"  transform=" translate(-1128.138, -1044.5140000000001)" d="M 952.871 1197.52 C 952.871 1197.09 952.871 1196.6299999999999 952.871 1196.18 C 992.559 1180.47 1032.67 1166.2 1073.07 1153.18 C 1186.1699999999998 1116.77 1301.78 1090.8400000000001 1418.4299999999998 1075.5900000000001 C 1418.3999999999999 1075.64 1418.36 1075.7400000000002 1418.34 1075.8100000000002 C 1419.01 1075.7000000000003 1419.6899999999998 1075.5900000000001 1420.37 1075.5100000000002 C 1290.04 1020.5200000000002 1182.6599999999999 925.8200000000002 1103.8899999999999 838.3280000000002 C 1103.58 838.6410000000002 1103.29 838.9800000000002 1102.9699999999998 839.3280000000002 C 1003.0199999999998 950.4610000000002 892.9879999999998 1095.9100000000003 835.9569999999999 1247.2000000000003 C 835.9569999999999 1248.3800000000003 835.9219999999999 1249.5300000000002 835.9059999999998 1250.7000000000003 C 873.6479999999998 1231.0900000000004 913.3199999999998 1213.3700000000003 952.8709999999999 1197.5200000000002" stroke-linecap="round" />
</g>
		<g transform="matrix(0.13484069097888673 0 0 -0.13484069097888673 -17.854464491362762 6.707401151631501)"  >
<path style="stroke: none; stroke-width: 1; stroke-dasharray: none; stroke-linecap: butt; stroke-dashoffset: 0; stroke-linejoin: miter; stroke-miterlimit: 10; fill: rgb(225,29,37); fill-rule: nonzero; opacity: 1;"  paint-order="stroke"  transform=" translate(-1133.01710600604, -1259.67)" d="M 835.922 1250.07 C 864.039 1235.12 903.0310000000001 1216.28 954.363 1195.23 C 954.363 1194.74 954.363 1194.23 954.363 1193.73 C 1105.3700000000001 1133.97 1261.93 1093.76 1420.42 1073.05 C 1433.88 1197.1299999999999 1433.21 1322.28 1419.1000000000001 1446.29 C 1255.7600000000002 1365.1 1061.89 1293.84 835.9220000000001 1250.7 C 835.9220000000001 1250.49 835.9220000000001 1250.27 835.9220000000001 1250.07" stroke-linecap="round" />
</g>
		<g transform="matrix(0.13484069097888673 0 0 -0.13484069097888673 -18.597236084453016 -17.65125527831094)"  >
<path style="stroke: none; stroke-width: 1; stroke-dasharray: none; stroke-linecap: butt; stroke-dashoffset: 0; stroke-linejoin: miter; stroke-miterlimit: 10; fill: rgb(241,70,36); fill-rule: nonzero; opacity: 1;"  paint-order="stroke"  transform=" translate(-1127.5077480779732, -1440.3500000000001)" d="M 1408.83 1521.17 C 1407.46 1529.74 1406.1399999999999 1538.3200000000002 1404.6399999999999 1546.89 C 1403.1599999999999 1555.44 1401.58 1563.99 1399.9899999999998 1572.5300000000002 C 1396.3099999999997 1591.7200000000003 1392.4899999999998 1610.9100000000003 1388.1399999999999 1630.0000000000002 C 1285.9699999999998 1496.2000000000003 1136.6299999999999 1344.9400000000003 954.3629999999998 1288.7800000000002 C 941.1679999999998 1284.7100000000003 927.7729999999998 1281.1000000000001 914.2109999999998 1278.0400000000002 C 914.2109999999998 1278.0400000000002 882.5509999999998 1305.9400000000003 839.4689999999998 1366.63 C 836.9139999999999 1328.0200000000002 835.8199999999998 1289.3500000000001 835.9219999999998 1250.7 C 1061.8899999999999 1293.8400000000001 1255.7599999999998 1365.1000000000001 1419.1 1446.29 C 1419.08 1446.4099999999999 1419.05 1446.52 1419.05 1446.6499999999999 C 1416.21 1471.54 1412.71 1496.3799999999999 1408.83 1521.1699999999998" stroke-linecap="round" />
</g>
		<g transform="matrix(0.13484069097888673 0 0 -0.13484069097888673 20.01850287907871 -23.523861804222634)"  >
<path style="stroke: none; stroke-width: 1; stroke-dasharray: none; stroke-linecap: butt; stroke-dashoffset: 0; stroke-linejoin: miter; stroke-miterlimit: 10; fill: rgb(94,37,144); fill-rule: nonzero; opacity: 1;"  paint-order="stroke"  transform=" translate(-1413.94, -1483.91)" d="M 1419.05 1446.65 C 1416.21 1471.5400000000002 1412.77 1496.39 1408.83 1521.17 C 1412.71 1496.38 1416.21 1471.54 1419.05 1446.65" stroke-linecap="round" />
</g>
		<g transform="matrix(0.13484069097888673 0 0 -0.13484069097888673 18.451316698656456 -33.74300959692894)"  >
<path style="stroke: none; stroke-width: 1; stroke-dasharray: none; stroke-linecap: butt; stroke-dashoffset: 0; stroke-linejoin: miter; stroke-miterlimit: 10; fill: rgb(94,37,144); fill-rule: nonzero; opacity: 1;"  paint-order="stroke"  transform=" translate(-1402.315, -1559.71)" d="M 1404.64 1546.89 C 1403.13 1555.44 1401.6200000000001 1563.99 1399.99 1572.5300000000002 C 1401.58 1563.9900000000002 1403.16 1555.4400000000003 1404.64 1546.89" stroke-linecap="round" />
</g>
		<g transform="matrix(0.13484069097888673 0 0 -0.13484069097888673 79.20428406909787 -28.545804222648712)"  >
<path style="stroke: none; stroke-width: 1; stroke-dasharray: none; stroke-linecap: butt; stroke-dashoffset: 0; stroke-linejoin: miter; stroke-miterlimit: 10; fill: rgb(94,37,144); fill-rule: nonzero; opacity: 1;"  paint-order="stroke"  transform=" translate(-1852.95, -1521.1599999999999)" d="M 1621.21 1560.62 C 1864.53 1277.4699999999998 1925.39 1073.05 1925.39 1073.05 C 1898.25 1324.06 1927.65 1579.6999999999998 2013.3600000000001 1820.7199999999998 C 1962.38 1690.1099999999997 1948.1100000000001 1584.3899999999999 1948.1100000000001 1584.3899999999999 C 1948.1100000000001 1584.3899999999999 1962.38 1690.11 2013.3600000000001 1820.7199999999998 C 2020.0000000000002 1839.4299999999998 2026.91 1858.0699999999997 2034.22 1876.6 C 2035.14 1876.6 2036.04 1876.6 2036.91 1876.6 C 2050.7200000000003 1907.12 2066.54 1938.3 2084.69 1969.27 C 2084.69 1969.27 1933.5700000000002 1759.9 1621.21 1560.62" stroke-linecap="round" />
</g>
		<g transform="matrix(0.13484069097888673 0 0 -0.13484069097888673 54.84233397312863 0.10469865642994591)"  >
<path style="stroke: none; stroke-width: 1; stroke-dasharray: none; stroke-linecap: butt; stroke-dashoffset: 0; stroke-linejoin: miter; stroke-miterlimit: 10; fill: rgb(141,25,143); fill-rule: nonzero; opacity: 1;"  paint-order="stroke"  transform=" translate(-1672.245, -1308.645)" d="M 1419.1 1446.29 C 1433.2099999999998 1322.28 1433.8799999999999 1197.1299999999999 1420.4199999999998 1073.05 C 1588.0199999999998 1051.21 1757.79 1051.21 1925.3899999999999 1073.05 C 1925.3899999999999 1073.05 1864.53 1277.47 1621.2099999999998 1560.62 C 1560.0199999999998 1521.57 1492.7499999999998 1482.9099999999999 1419.1 1446.29" stroke-linecap="round" />
</g>
		<g transform="matrix(0.13484069097888673 0 0 -0.13484069097888673 -8.758057581573894 -86.95507869481762)"  >
<path style="stroke: none; stroke-width: 1; stroke-dasharray: none; stroke-linecap: butt; stroke-dashoffset: 0; stroke-linejoin: miter; stroke-miterlimit: 10; fill: rgb(141,25,143); fill-rule: nonzero; opacity: 1;"  paint-order="stroke"  transform=" translate(-1200.4899999999998, -1954.4099999999999)" d="M 1196.68 1954.27 C 1199.21 1954.02 1201.78 1953.65 1204.3 1953.3799999999999 C 1203.43 1954.07 1202.53 1954.76 1201.6499999999999 1955.4399999999998 C 1199.9999999999998 1955.0299999999997 1198.33 1954.6899999999998 1196.6799999999998 1954.2699999999998" stroke-linecap="round" />
</g>
		<g transform="matrix(0.13484069097888673 0 0 -0.13484069097888673 50.92257197696733 -64.3721074856046)"  >
<path style="stroke: none; stroke-width: 1; stroke-dasharray: none; stroke-linecap: butt; stroke-dashoffset: 0; stroke-linejoin: miter; stroke-miterlimit: 10; fill: rgb(141,25,143); fill-rule: nonzero; opacity: 1;"  paint-order="stroke"  transform=" translate(-1643.17, -1786.9011434775057)" d="M 1621.21 1560.62 C 1933.5700000000002 1759.8999999999999 2084.69 1969.27 2084.69 1969.27 C 1793.41 2032.11 1491.31 2027.51 1201.65 1955.44 C 1202.5300000000002 1954.76 1203.43 1954.0700000000002 1204.3000000000002 1953.38 C 1310.4700000000003 1942.21 1424.2700000000002 1916.5 1539.1100000000001 1867.5700000000002 C 1539.1100000000001 1867.5700000000002 1511.0900000000001 1810.5400000000002 1459.7900000000002 1731.7500000000002 C 1520.9200000000003 1672.3900000000003 1574.42 1615.0500000000002 1621.2100000000003 1560.6200000000003" stroke-linecap="round" />
</g>
		<g transform="matrix(0.13484069097888673 0 0 -0.13484069097888673 32.251078694817636 -37.69441074856047)"  >
<path style="stroke: none; stroke-width: 1; stroke-dasharray: none; stroke-linecap: butt; stroke-dashoffset: 0; stroke-linejoin: miter; stroke-miterlimit: 10; fill: rgb(94,37,144); fill-rule: nonzero; opacity: 1;"  paint-order="stroke"  transform=" translate(-1504.675, -1589.02)" d="M 1459.79 1731.75 C 1439.45 1700.51 1415.57 1665.95 1388.1399999999999 1630 C 1392.4899999999998 1610.9 1396.34 1591.73 1399.9899999999998 1572.53 C 1401.62 1563.99 1403.1299999999999 1555.44 1404.6399999999999 1546.8899999999999 C 1406.12 1538.32 1407.4899999999998 1529.7499999999998 1408.83 1521.1699999999998 C 1412.77 1496.3899999999999 1416.21 1471.5399999999997 1419.05 1446.6499999999999 C 1419.05 1446.5199999999998 1419.08 1446.4099999999999 1419.1 1446.29 C 1492.75 1482.9099999999999 1560.02 1521.57 1621.21 1560.62 C 1574.42 1615.05 1520.92 1672.3899999999999 1459.79 1731.75" stroke-linecap="round" />
</g>
		<g transform="matrix(0.13484069097888673 0 0 -0.13484069097888673 1.5987255278311068 -68.74220345489437)"  >
<path style="stroke: none; stroke-width: 1; stroke-dasharray: none; stroke-linecap: butt; stroke-dashoffset: 0; stroke-linejoin: miter; stroke-miterlimit: 10; fill: rgb(246,135,18); fill-rule: nonzero; opacity: 1;"  paint-order="stroke"  transform=" translate(-1277.3113163431894, -1819.316282084657)" d="M 1025.82 1678.11 C 1143.1799999999998 1766.1499999999999 1539.11 1867.57 1539.11 1867.57 C 1448.3799999999999 1906.22 1358.35 1930.33 1272.1899999999998 1944.31 C 1246.8899999999999 1948.4199999999998 1221.9199999999998 1951.73 1197.3999999999999 1954.19 C 1197.1699999999998 1954.21 1196.9299999999998 1954.25 1196.6799999999998 1954.27 C 1137.62 1960.15 1080.9799999999998 1961.52 1027.9299999999998 1959.8799999999999 C 1001.2799999999999 1792.4499999999998 1025.82 1678.11 1025.82 1678.11" stroke-linecap="round" />
</g>
		<g transform="matrix(0.13484069097888673 0 0 -0.13484069097888673 -5.229842610364699 -35.50841458733203)"  >
<path style="stroke: none; stroke-width: 1; stroke-dasharray: none; stroke-linecap: butt; stroke-dashoffset: 0; stroke-linejoin: miter; stroke-miterlimit: 10; fill: rgb(249,167,43); fill-rule: nonzero; opacity: 1;"  paint-order="stroke"  transform=" translate(-1226.6605, -1572.8049999999998)" d="M 1025.82 1678.11 C 1025.82 1678.11 1012.8699999999999 1401.2399999999998 914.2109999999999 1278.04 C 927.7729999999999 1281.1 941.1679999999999 1284.71 954.3629999999999 1288.78 C 1135.28 1344.53 1283.69 1493.93 1385.8 1626.99 C 1386.57 1627.98 1387.3899999999999 1629 1388.1399999999999 1630 C 1484.7399999999998 1756.61 1539.11 1867.57 1539.11 1867.57 C 1539.11 1867.57 1143.1799999999998 1766.1499999999999 1025.82 1678.11" stroke-linecap="round" />
</g>
		<g transform="matrix(0.13484069097888673 0 0 -0.13484069097888673 -58.49451055662183 -68.69888675623798)"  >
<path style="stroke: none; stroke-width: 1; stroke-dasharray: none; stroke-linecap: butt; stroke-dashoffset: 0; stroke-linejoin: miter; stroke-miterlimit: 10; fill: rgb(249,167,43); fill-rule: nonzero; opacity: 1;"  paint-order="stroke"  transform=" translate(-831.5704999999998, -1818.9950000000001)" d="M 635.699 1885.95 C 635.7579999999999 1885.6100000000001 635.8359999999999 1885.3 635.895 1884.97 C 798.492 1740.8 1025.82 1678.1100000000001 1025.82 1678.1100000000001 C 1025.82 1678.1100000000001 1001.28 1792.45 1027.9299999999998 1959.88 C 797.6719999999998 1952.73 635.2109999999998 1888.66 635.2109999999998 1888.66 C 635.3709999999998 1887.71 635.5269999999998 1886.8500000000001 635.6989999999998 1885.95" stroke-linecap="round" />
</g>
		<g transform="matrix(0.13484069097888673 0 0 -0.13484069097888673 -58.59062571976966 -36.681259117082476)"  >
<path style="stroke: none; stroke-width: 1; stroke-dasharray: none; stroke-linecap: butt; stroke-dashoffset: 0; stroke-linejoin: miter; stroke-miterlimit: 10; fill: rgb(246,135,18); fill-rule: nonzero; opacity: 1;"  paint-order="stroke"  transform=" translate(-830.8574999999997, -1581.505)" d="M 635.895 1884.97 C 671.422 1688.98 732.184 1545.72 787.906 1447.8 C 797.781 1430.45 807.473 1414.56 816.8399999999999 1400.02 C 820.137 1394.8799999999999 823.43 1389.91 826.6639999999999 1385.11 C 830.1909999999999 1379.8799999999999 833.6169999999998 1374.9799999999998 837.0269999999998 1370.1399999999999 C 837.8199999999998 1369.0099999999998 838.6839999999999 1367.7499999999998 839.4689999999998 1366.6299999999999 C 882.5509999999998 1305.9399999999998 914.2109999999998 1278.04 914.2109999999998 1278.04 C 1012.8699999999998 1401.24 1025.8199999999997 1678.11 1025.8199999999997 1678.11 C 1025.8199999999997 1678.11 798.4919999999997 1740.8 635.8949999999998 1884.9699999999998" stroke-linecap="round" />
</g>
		<g transform="matrix(0.13484069097888673 0 0 -0.13484069097888673 -103.59986948176584 -39.479378119001865)"  >
<path style="stroke: none; stroke-width: 1; stroke-dasharray: none; stroke-linecap: butt; stroke-dashoffset: 0; stroke-linejoin: miter; stroke-miterlimit: 10; fill: rgb(237,28,36); fill-rule: nonzero; opacity: 1;"  paint-order="stroke"  transform=" translate(-497.00199999999995, -1602.26)" d="M 634.961 1885.25 C 632.418 1882.64 626.719 1879.41 624.4300000000001 1876.85 C 476.113 1711.93 384.156 1520.18 358.109 1319.27 L 456.715 1320.72 C 475.42999999999995 1649.06 635.895 1884.97 635.895 1884.97 L 634.961 1885.25" stroke-linecap="round" />
</g>
		<g transform="matrix(0.13484069097888673 0 0 -0.13484069097888673 -86.70615738963534 -39.624299424184244)"  >
<path style="stroke: none; stroke-width: 1; stroke-dasharray: none; stroke-linecap: butt; stroke-dashoffset: 0; stroke-linejoin: miter; stroke-miterlimit: 10; fill: rgb(241,70,36); fill-rule: nonzero; opacity: 1;"  paint-order="stroke"  transform=" translate(-622.3104999999998, -1603.335)" d="M 582.168 1493.69 C 562.063 1493.69 545.82 1510 545.82 1530.1100000000001 C 545.82 1550.2500000000002 562.0630000000001 1566.5300000000002 582.168 1566.5300000000002 C 602.297 1566.5300000000002 618.648 1550.2500000000002 618.648 1530.1100000000001 C 618.648 1510.0000000000002 602.297 1493.69 582.168 1493.69 z M 635.699 1885.95 C 635.5269999999999 1885.73 635.188 1885.48 634.9609999999999 1885.25 L 635.8949999999999 1884.97 C 635.8949999999999 1884.97 475.42999999999984 1649.06 456.71499999999986 1320.72 L 558.2659999999998 1322.19 L 713.9379999999999 1369.05 C 737.3549999999999 1398.76 762.2699999999999 1425.27 787.9059999999998 1447.8 C 732.1019999999999 1545.8799999999999 671.1989999999998 1689.45 635.6989999999998 1885.9499999999998" stroke-linecap="round" />
</g>
		<g transform="matrix(0.13484069097888673 0 0 -0.13484069097888673 -97.91220729366603 43.9543723608445)"  >
<path style="stroke: none; stroke-width: 1; stroke-dasharray: none; stroke-linecap: butt; stroke-dashoffset: 0; stroke-linejoin: miter; stroke-miterlimit: 10; fill: rgb(237,28,36); fill-rule: nonzero; opacity: 1;"  paint-order="stroke"  transform=" translate(-539.1895, -983.3904999999999)" d="M 622.434 1217.84 L 582.188 1184.9399999999998 L 455.945 1214.0199999999998 C 462.02 1069.0399999999997 498.473 910.5199999999998 587.637 748.9409999999998 C 533.871 910.5199999999998 559.449 1078.83 622.434 1217.8399999999997" stroke-linecap="round" />
</g>
		<g transform="matrix(0.13484069097888673 0 0 -0.13484069097888673 -107.3651285988484 45.23121689059502)"  >
<path style="stroke: none; stroke-width: 1; stroke-dasharray: none; stroke-linecap: butt; stroke-dashoffset: 0; stroke-linejoin: miter; stroke-miterlimit: 10; fill: rgb(241,70,36); fill-rule: nonzero; opacity: 1;"  paint-order="stroke"  transform=" translate(-469.0726971374113, -973.9200000000001)" d="M 485.707 709.68 C 529.984 726.7299999999999 543.344 731.871 587.637 748.9409999999999 C 498.473 910.52 462.02 1069.04 455.945 1214.02 L 351.262 1238.16 C 344.176 1063.21 386.914 883.3280000000001 485.707 709.6800000000001" stroke-linecap="round" />
</g>
		<g transform="matrix(0.13484069097888673 0 0 -0.13484069097888673 -84.31685220729366 4.371692898272585)"  >
<path style="stroke: none; stroke-width: 1; stroke-dasharray: none; stroke-linecap: butt; stroke-dashoffset: 0; stroke-linejoin: miter; stroke-miterlimit: 10; fill: rgb(249,167,43); fill-rule: nonzero; opacity: 1;"  paint-order="stroke"  transform=" translate(-640.0335, -1276.9950000000001)" d="M 566.129 1255.07 L 582.188 1184.94 L 622.434 1217.8400000000001 C 647.77 1273.8000000000002 679.16 1324.9700000000003 713.938 1369.0500000000002 L 566.129 1255.07" stroke-linecap="round" />
</g>
		<g transform="matrix(0.13484069097888673 0 0 -0.13484069097888673 -84.84683301343568 -0.355715930902079)"  >
<path style="stroke: none; stroke-width: 1; stroke-dasharray: none; stroke-linecap: butt; stroke-dashoffset: 0; stroke-linejoin: miter; stroke-miterlimit: 10; fill: rgb(246,135,18); fill-rule: nonzero; opacity: 1;"  paint-order="stroke"  transform=" translate(-636.102, -1312.06)" d="M 713.938 1369.05 L 558.266 1322.19 L 566.129 1255.0700000000002 z" stroke-linecap="round" />
</g>
		<g transform="matrix(0.13484069097888673 0 0 -0.13484069097888673 -129.95907869481766 8.060199616122901)"  >
<path style="stroke: none; stroke-width: 1; stroke-dasharray: none; stroke-linecap: butt; stroke-dashoffset: 0; stroke-linejoin: miter; stroke-miterlimit: 10; fill: rgb(246,135,18); fill-rule: nonzero; opacity: 1;"  paint-order="stroke"  transform=" translate(-301.48265, -1249.6349999999998)" d="M 20.7773 1314.33 L 351.262 1238.1599999999999 L 582.188 1184.9399999999998 L 566.129 1255.0699999999997 L 20.77729999999997 1314.3299999999997" stroke-linecap="round" />
</g>
		<g transform="matrix(0.13484069097888673 0 0 -0.13484069097888673 -131.04159692898273 2.803109404990437)"  >
<path style="stroke: none; stroke-width: 1; stroke-dasharray: none; stroke-linecap: butt; stroke-dashoffset: 0; stroke-linejoin: miter; stroke-miterlimit: 10; fill: rgb(249,167,43); fill-rule: nonzero; opacity: 1;"  paint-order="stroke"  transform=" translate(-293.45315, -1288.63)" d="M 20.7773 1314.33 L 566.129 1255.07 L 558.266 1322.19 L 358.1089999999999 1319.27 L 20.77729999999991 1314.33" stroke-linecap="round" />
</g>
</g>
</g>
</svg>